<svg xmlns="http://www.w3.org/2000/svg"  xmlns:xlink="http://www.w3.org/1999/xlink" version="1.1" id="Layer_1" x="0px" y="0px" viewBox="0 0 127.441 127.441" style="enable-background:new 0 0 127.441 127.441;" xml:space="preserve">
<g>
	
	
	<g>
		<path style="fill:#fff;" d="M63.723,127.441c-0.996,0-1.979-0.263-2.842-0.76l-21.609-12.478    c-1.754-1.013-2.843-2.899-2.843-4.924V30.856c0-0.397,0.042-0.792,0.124-1.179c-0.08-0.826-0.119-1.61-0.119-2.389    C36.434,12.241,48.676,0,63.723,0c7.45,0,14.414,2.959,19.609,8.333c1.03,1.063,1.599,2.467,1.599,3.951v10.551    c3.926,4.848,6.082,10.916,6.082,17.149s-2.156,12.301-6.082,17.149v55.662c0,2.024-1.089,3.911-2.843,4.924l-15.522,8.963    C65.701,127.179,64.719,127.441,63.723,127.441z M63.723,3C50.33,3,39.434,13.896,39.434,27.288c0,0.753,0.042,1.516,0.128,2.333    c0.02,0.183,0.005,0.369-0.042,0.546c-0.061,0.224-0.091,0.456-0.091,0.689v78.424c0,0.956,0.515,1.848,1.343,2.326l21.608,12.477    c0.814,0.469,1.87,0.47,2.687-0.001l15.521-8.962c0.828-0.479,1.343-1.37,1.343-2.326V56.593c0-0.354,0.125-0.697,0.354-0.968    c3.694-4.376,5.729-9.931,5.729-15.642s-2.034-11.266-5.729-15.642c-0.229-0.271-0.354-0.614-0.354-0.968V12.283    c0-0.7-0.268-1.362-0.754-1.865C76.551,5.634,70.353,3,63.723,3z"/>
	</g>
	
	
	
	<path style="fill:#fff;" d="M79.607,39.21c0-8.257-6.334-15.057-14.398-15.811c0.003-0.037,0.011-0.073,0.011-0.111v-7.063   c0-0.829-0.672-1.5-1.5-1.5s-1.5,0.671-1.5,1.5v7.063c0,0.038,0.008,0.073,0.011,0.111c-8.064,0.754-14.398,7.554-14.398,15.811   s6.334,15.058,14.398,15.811c-0.003,0.037-0.011,0.073-0.011,0.111v7.063c0,0.829,0.672,1.5,1.5,1.5s1.5-0.671,1.5-1.5v-7.063   c0-0.038-0.008-0.073-0.011-0.111C73.273,54.267,79.607,47.467,79.607,39.21z M63.721,26.323c6.597,0,12.045,4.986,12.792,11.387   H50.929C51.675,31.309,57.123,26.323,63.721,26.323z M63.721,52.097c-6.597,0-12.045-4.986-12.792-11.387h25.584   C75.766,47.111,70.318,52.097,63.721,52.097z"/>
	<g>
		<path style="fill:#fff;" d="M48.744,87.882c-2.087,0-3.785-1.698-3.785-3.785s1.698-3.785,3.785-3.785s3.785,1.698,3.785,3.785    S50.831,87.882,48.744,87.882z M48.744,83.312c-0.433,0-0.785,0.352-0.785,0.785s0.353,0.785,0.785,0.785s0.785-0.352,0.785-0.785    S49.177,83.312,48.744,83.312z"/>
	</g>
	<g>
		<path style="fill:#fff;" d="M51.029,96.915h-4.57c-0.828,0-1.5-0.671-1.5-1.5s0.672-1.5,1.5-1.5h4.57    c0.828,0,1.5,0.671,1.5,1.5S51.857,96.915,51.029,96.915z"/>
	</g>
	<g>
		<path style="fill:#fff;" d="M51.029,103.717h-4.57c-0.828,0-1.5-0.671-1.5-1.5s0.672-1.5,1.5-1.5h4.57    c0.828,0,1.5,0.671,1.5,1.5S51.857,103.717,51.029,103.717z"/>
	</g>
	<g>
		<g>
			<circle style="fill:#A7BBC1;" cx="63.721" cy="40.857" r="4.757"/>
		</g>
		<g>
			<circle style="fill:#FFFFFF;" cx="63.721" cy="39.24" r="4.757"/>
		</g>
		
		<g>
			<path style="fill:#fff;" d="M63.721,45.494c-1.603,0-3.204-0.609-4.424-1.828c-2.44-2.44-2.44-6.41,0-8.85     c2.439-2.439,6.408-2.439,8.848,0c2.44,2.44,2.44,6.41,0,8.85C66.925,44.884,65.322,45.494,63.721,45.494z M63.721,35.984     c-0.834,0-1.668,0.317-2.303,0.952c-1.271,1.271-1.271,3.337,0,4.607c1.27,1.269,3.336,1.269,4.605,0     c1.271-1.27,1.271-3.336,0-4.607C65.389,36.302,64.555,35.984,63.721,35.984z"/>
		</g>
	</g>
</g>
<g>
</g>
<g>
</g>
<g>
</g>
<g>
</g>
<g>
</g>
<g>
</g>
<g>
</g>
<g>
</g>
<g>
</g>
<g>
</g>
<g>
</g>
<g>
</g>
<g>
</g>
<g>
</g>
<g>
</g>
</svg>